<?xml version="1.0" encoding="UTF-8"?>
<svg width="704px" height="172px" viewBox="0 0 704 172" version="1.1" xmlns="http://www.w3.org/2000/svg" xmlns:xlink="http://www.w3.org/1999/xlink">
        <polygon id="Path" fill="#000000" fill-rule="nonzero" points="650.190299 90.0117188 672.319206 51.7695312 701.323112 51.7695312 665.766471 109.025391 702.504753 168 673.71569 168 650.512565 128.253906 627.416862 168 598.412956 168 635.151237 109.025391 599.702018 51.7695312 628.491081 51.7695312"></polygon>
        <polygon id="Path" fill="#000000" fill-rule="nonzero" points="593.610482 168 567.506966 168 567.506966 51.7695312 593.610482 51.7695312"></polygon>
        <path d="M565.895638,21.5839844 C565.895638,17.5735677 567.166797,14.2434896 569.709115,11.59375 C572.251432,8.94401042 575.885872,7.61914062 580.612435,7.61914062 C585.338997,7.61914062 588.991341,8.94401042 591.569466,11.59375 C594.147591,14.2434896 595.436654,17.5735677 595.436654,21.5839844 C595.436654,25.5227865 594.147591,28.7991536 591.569466,31.4130859 C588.991341,34.0270182 585.338997,35.3339844 580.612435,35.3339844 C575.885872,35.3339844 572.251432,34.0270182 569.709115,31.4130859 C567.166797,28.7991536 565.895638,25.5227865 565.895638,21.5839844 Z" id="Path" fill="#000000" fill-rule="nonzero"></path>
        <path d="M524.462305,23.7324219 C517.157617,22.7298177 510.855534,22.2285156 505.556055,22.2285156 C491.519596,22.2285156 484.501367,28.8170573 484.501367,41.9941406 L484.501367,51.7695312 L508.13418,51.7695312 L508.13418,71.1054688 L484.501367,71.1054688 L484.501367,168 L458.397852,168 L458.397852,71.1054688 L440.673242,71.1054688 L440.673242,51.7695312 L458.397852,51.7695312 L458.397852,41.3496094 C458.469466,28.2441406 462.354557,18.2001953 470.053125,11.2177734 C477.751693,4.23535156 488.619206,0.744140625 502.655664,0.744140625 C511.392643,0.744140625 527.362695,2.46289062 550.56582,5.90039062 L550.56582,168 L524.462305,168 L524.462305,23.7324219 Z" id="Path" fill="#000000" fill-rule="nonzero"></path>
        <polygon id="Path" fill="#000000" fill-rule="nonzero" points="365.637676 168 365.637676 23.59125 314.157676 23.59125 314.157676 0 443.082676 0 443.082676 23.59125 391.602676 23.59125 391.602676 168"></polygon>
        <polygon id="Path" fill="#000000" fill-rule="nonzero" points="196.528252 168 196.528252 0 302.259502 0 302.259502 23.59125 222.497002 23.59125 222.497002 71.65125 295.539502 71.65125 295.539502 95.2425 222.497002 95.2425 222.497002 144.40875 303.530752 144.40875 303.530752 168"></polygon>
        <polygon id="Path" fill="#000000" fill-rule="nonzero" points="55.4841992 168 55.4841992 0 105.310449 0 151.015449 150.76875 154.832949 150.76875 154.832949 0 180.486699 0 180.486699 168 130.664199 168 84.9554492 17.14875 81.1416992 17.14875 81.1416992 168"></polygon>
        <path d="M19.7698242,171.36 C14.1573242,171.36 9.47294922,169.521875 5.71669922,165.845625 C1.96044922,162.169375 0.0823242188,157.46 0.0823242188,151.7175 C0.0823242188,145.9725 1.96044922,141.27375 5.71669922,137.62125 C9.47294922,133.96875 14.1573242,132.1425 19.7698242,132.1425 C25.3823242,132.1425 30.0404492,133.980625 33.7441992,137.656875 C37.4479492,141.333125 39.2998242,146.04375 39.2998242,151.78875 C39.2998242,157.53125 37.4479492,162.22875 33.7441992,165.88125 C30.0404492,169.53375 25.3823242,171.36 19.7698242,171.36 Z" id="Path" fill="#000000" fill-rule="nonzero"></path>
</svg>